<mxfile host="app.diagrams.net" modified="2024-04-06T01:07:28.111Z" agent="Mozilla/5.0 (Macintosh; Intel Mac OS X 10_15_7) AppleWebKit/605.1.15 (KHTML, like Gecko) Version/17.2.1 Safari/605.1.15" version="24.2.1" etag="Xu6sLoWCZN6BHbFljx2D" type="github">
  <diagram name="Page-1" id="XLO50wLbVLwEwCg8ycQ7">
    <mxGraphModel>
      <root>
        <mxCell id="0" />
        <mxCell id="1" parent="0" />
      </root>
    </mxGraphModel>
  </diagram>
</mxfile>
